<svg width="287" height="37" viewBox="0 0 287 37" fill="none" xmlns="http://www.w3.org/2000/svg">
    <path d="M26.5391 5.57812H15.5703V36H11.0938V5.57812H0.148438V1.875H26.5391V5.57812ZM39.1016 36.4688C35.6641 36.4688 32.8672 35.3438 30.7109 33.0938C28.5547 30.8281 27.4766 27.8047 27.4766 24.0234V23.2266C27.4766 20.7109 27.9531 18.4688 28.9062 16.5C29.875 14.5156 31.2188 12.9688 32.9375 11.8594C34.6719 10.7344 36.5469 10.1719 38.5625 10.1719C41.8594 10.1719 44.4219 11.2578 46.25 13.4297C48.0781 15.6016 48.9922 18.7109 48.9922 22.7578V24.5625H31.8125C31.875 27.0625 32.6016 29.0859 33.9922 30.6328C35.3984 32.1641 37.1797 32.9297 39.3359 32.9297C40.8672 32.9297 42.1641 32.6172 43.2266 31.9922C44.2891 31.3672 45.2188 30.5391 46.0156 29.5078L48.6641 31.5703C46.5391 34.8359 43.3516 36.4688 39.1016 36.4688ZM38.5625 13.7344C36.8125 13.7344 35.3438 14.375 34.1562 15.6562C32.9688 16.9219 32.2344 18.7031 31.9531 21H44.6562V20.6719C44.5312 18.4688 43.9375 16.7656 42.875 15.5625C41.8125 14.3438 40.375 13.7344 38.5625 13.7344ZM58.7422 36H54.4062V0H58.7422V36ZM70.4141 36H66.0781V0H70.4141V36ZM83.2578 4.5V10.6406H87.9922V13.9922H83.2578V29.7188C83.2578 30.7344 83.4688 31.5 83.8906 32.0156C84.3125 32.5156 85.0312 32.7656 86.0469 32.7656C86.5469 32.7656 87.2344 32.6719 88.1094 32.4844V36C86.9688 36.3125 85.8594 36.4688 84.7812 36.4688C82.8438 36.4688 81.3828 35.8828 80.3984 34.7109C79.4141 33.5391 78.9219 31.875 78.9219 29.7188V13.9922H74.3047V10.6406H78.9219V4.5H83.2578ZM108.734 36C108.484 35.5 108.281 34.6094 108.125 33.3281C106.109 35.4219 103.703 36.4688 100.906 36.4688C98.4062 36.4688 96.3516 35.7656 94.7422 34.3594C93.1484 32.9375 92.3516 31.1406 92.3516 28.9688C92.3516 26.3281 93.3516 24.2812 95.3516 22.8281C97.3672 21.3594 100.195 20.625 103.836 20.625H108.055V18.6328C108.055 17.1172 107.602 15.9141 106.695 15.0234C105.789 14.1172 104.453 13.6641 102.688 13.6641C101.141 13.6641 99.8438 14.0547 98.7969 14.8359C97.75 15.6172 97.2266 16.5625 97.2266 17.6719H92.8672C92.8672 16.4062 93.3125 15.1875 94.2031 14.0156C95.1094 12.8281 96.3281 11.8906 97.8594 11.2031C99.4062 10.5156 101.102 10.1719 102.945 10.1719C105.867 10.1719 108.156 10.9062 109.812 12.375C111.469 13.8281 112.328 15.8359 112.391 18.3984V30.0703C112.391 32.3984 112.688 34.25 113.281 35.625V36H108.734ZM101.539 32.6953C102.898 32.6953 104.188 32.3438 105.406 31.6406C106.625 30.9375 107.508 30.0234 108.055 28.8984V23.6953H104.656C99.3438 23.6953 96.6875 25.25 96.6875 28.3594C96.6875 29.7188 97.1406 30.7812 98.0469 31.5469C98.9531 32.3125 100.117 32.6953 101.539 32.6953ZM123.898 36H119.562V10.6406H123.898V36ZM119.211 3.91406C119.211 3.21094 119.422 2.61719 119.844 2.13281C120.281 1.64844 120.922 1.40625 121.766 1.40625C122.609 1.40625 123.25 1.64844 123.688 2.13281C124.125 2.61719 124.344 3.21094 124.344 3.91406C124.344 4.61719 124.125 5.20312 123.688 5.67188C123.25 6.14062 122.609 6.375 121.766 6.375C120.922 6.375 120.281 6.14062 119.844 5.67188C119.422 5.20312 119.211 4.61719 119.211 3.91406ZM135.57 36H131.234V0H135.57V36Z" fill="#F49EC4"/>
    <path d="M168.195 31.9453C167.195 33.3672 165.625 34.4766 163.484 35.2734C161.359 36.0703 158.977 36.4688 156.336 36.4688C153.664 36.4688 151.289 35.8281 149.211 34.5469C147.133 33.2656 145.523 31.4531 144.383 29.1094C143.242 26.7656 142.664 24.0781 142.648 21.0469V16.7344C142.648 12 143.844 8.26563 146.234 5.53125C148.625 2.78125 151.836 1.40625 155.867 1.40625C159.383 1.40625 162.211 2.30469 164.352 4.10156C166.492 5.88281 167.766 8.34375 168.172 11.4844H165.289C164.867 8.98437 163.844 7.09375 162.219 5.8125C160.609 4.51563 158.5 3.86719 155.891 3.86719C152.703 3.86719 150.18 5 148.32 7.26562C146.461 9.53125 145.531 12.7266 145.531 16.8516V20.8828C145.531 23.4766 145.969 25.7734 146.844 27.7734C147.734 29.7578 149 31.2969 150.641 32.3906C152.297 33.4844 154.195 34.0312 156.336 34.0312C158.82 34.0312 160.953 33.6406 162.734 32.8594C163.891 32.3438 164.75 31.7422 165.312 31.0547V22.2422H156.148V19.8047H168.195V31.9453ZM191.727 36C191.445 35.2031 191.266 34.0234 191.188 32.4609C190.203 33.7422 188.945 34.7344 187.414 35.4375C185.898 36.125 184.289 36.4688 182.586 36.4688C180.148 36.4688 178.172 35.7891 176.656 34.4297C175.156 33.0703 174.406 31.3516 174.406 29.2734C174.406 26.8047 175.43 24.8516 177.477 23.4141C179.539 21.9766 182.406 21.2578 186.078 21.2578H191.164V18.375C191.164 16.5625 190.602 15.1406 189.477 14.1094C188.367 13.0625 186.742 12.5391 184.602 12.5391C182.648 12.5391 181.031 13.0391 179.75 14.0391C178.469 15.0391 177.828 16.2422 177.828 17.6484L175.016 17.625C175.016 15.6094 175.953 13.8672 177.828 12.3984C179.703 10.9141 182.008 10.1719 184.742 10.1719C187.57 10.1719 189.797 10.8828 191.422 12.3047C193.062 13.7109 193.906 15.6797 193.953 18.2109V30.2109C193.953 32.6641 194.211 34.5 194.727 35.7188V36H191.727ZM182.914 33.9844C184.789 33.9844 186.461 33.5312 187.93 32.625C189.414 31.7188 190.492 30.5078 191.164 28.9922V23.4141H186.148C183.352 23.4453 181.164 23.9609 179.586 24.9609C178.008 25.9453 177.219 27.3047 177.219 29.0391C177.219 30.4609 177.742 31.6406 178.789 32.5781C179.852 33.5156 181.227 33.9844 182.914 33.9844ZM204.008 10.6406L204.102 14.7656C205.039 13.2344 206.211 12.0859 207.617 11.3203C209.023 10.5547 210.586 10.1719 212.305 10.1719C216.305 10.1719 218.844 11.8125 219.922 15.0938C220.828 13.5156 222.039 12.3047 223.555 11.4609C225.07 10.6016 226.742 10.1719 228.57 10.1719C234.008 10.1719 236.781 13.1406 236.891 19.0781V36H234.078V19.2891C234.062 17.0234 233.57 15.3438 232.602 14.25C231.648 13.1562 230.086 12.6094 227.914 12.6094C225.898 12.6406 224.195 13.2969 222.805 14.5781C221.414 15.8438 220.641 17.3906 220.484 19.2188V36H217.672V19.0781C217.656 16.9062 217.141 15.2891 216.125 14.2266C215.125 13.1484 213.578 12.6094 211.484 12.6094C209.719 12.6094 208.203 13.1172 206.938 14.1328C205.672 15.1328 204.734 16.625 204.125 18.6094V36H201.312V10.6406H204.008ZM253.836 36.4688C251.68 36.4688 249.727 35.9375 247.977 34.875C246.242 33.8125 244.891 32.3359 243.922 30.4453C242.953 28.5391 242.469 26.4062 242.469 24.0469V23.0391C242.469 20.6016 242.938 18.4062 243.875 16.4531C244.828 14.5 246.148 12.9688 247.836 11.8594C249.523 10.7344 251.352 10.1719 253.32 10.1719C256.398 10.1719 258.836 11.2266 260.633 13.3359C262.445 15.4297 263.352 18.2969 263.352 21.9375V23.5078H245.258V24.0469C245.258 26.9219 246.078 29.3203 247.719 31.2422C249.375 33.1484 251.453 34.1016 253.953 34.1016C255.453 34.1016 256.773 33.8281 257.914 33.2812C259.07 32.7344 260.117 31.8594 261.055 30.6562L262.812 31.9922C260.75 34.9766 257.758 36.4688 253.836 36.4688ZM253.32 12.5625C251.211 12.5625 249.43 13.3359 247.977 14.8828C246.539 16.4297 245.664 18.5078 245.352 21.1172H260.562V20.8125C260.484 18.375 259.789 16.3906 258.477 14.8594C257.164 13.3281 255.445 12.5625 253.32 12.5625ZM284 29.5547C284 28.1641 283.438 27.0469 282.312 26.2031C281.203 25.3594 279.523 24.7031 277.273 24.2344C275.023 23.75 273.273 23.2031 272.023 22.5938C270.789 21.9688 269.867 21.2109 269.258 20.3203C268.664 19.4297 268.367 18.3516 268.367 17.0859C268.367 15.0859 269.203 13.4375 270.875 12.1406C272.547 10.8281 274.688 10.1719 277.297 10.1719C280.125 10.1719 282.391 10.875 284.094 12.2812C285.812 13.6719 286.672 15.4922 286.672 17.7422H283.859C283.859 16.2578 283.234 15.0234 281.984 14.0391C280.75 13.0547 279.188 12.5625 277.297 12.5625C275.453 12.5625 273.969 12.9766 272.844 13.8047C271.734 14.6172 271.18 15.6797 271.18 16.9922C271.18 18.2578 271.641 19.2422 272.562 19.9453C273.5 20.6328 275.195 21.2656 277.648 21.8438C280.117 22.4219 281.961 23.0391 283.18 23.6953C284.414 24.3516 285.328 25.1406 285.922 26.0625C286.516 26.9844 286.812 28.1016 286.812 29.4141C286.812 31.5547 285.945 33.2656 284.211 34.5469C282.492 35.8281 280.242 36.4688 277.461 36.4688C274.508 36.4688 272.109 35.7578 270.266 34.3359C268.438 32.8984 267.523 31.0859 267.523 28.8984H270.336C270.445 30.5391 271.133 31.8203 272.398 32.7422C273.68 33.6484 275.367 34.1016 277.461 34.1016C279.414 34.1016 280.992 33.6719 282.195 32.8125C283.398 31.9531 284 30.8672 284 29.5547Z" fill="black"/>
</svg>
